<mxfile host="app.diagrams.net" modified="2022-05-16T04:10:38.309Z" agent="5.0 (X11; Linux x86_64) AppleWebKit/537.36 (KHTML, like Gecko) Chrome/100.0.4896.60 Safari/537.36" etag="XRz7qmWjiApryhzs3Tl8" version="18.0.2" type="github">
  <diagram id="fLK2QHoBTqFBZqGhMDc5" name="Page-1">
    <mxGraphModel dx="1422" dy="739" grid="1" gridSize="10" guides="1" tooltips="1" connect="1" arrows="1" fold="1" page="1" pageScale="1" pageWidth="850" pageHeight="1100" math="0" shadow="0">
      <root>
        <mxCell id="0" />
        <mxCell id="1" parent="0" />
        <mxCell id="Ezx-8jmVCmr3T-Vk9Jlq-1" value="SUBSCRIPTION" style="whiteSpace=wrap;html=1;align=center;" vertex="1" parent="1">
          <mxGeometry x="70" y="140" width="150" height="60" as="geometry" />
        </mxCell>
        <mxCell id="Ezx-8jmVCmr3T-Vk9Jlq-2" value="POLICY" style="whiteSpace=wrap;html=1;align=center;" vertex="1" parent="1">
          <mxGeometry x="298.64" y="140" width="150" height="60" as="geometry" />
        </mxCell>
        <mxCell id="Ezx-8jmVCmr3T-Vk9Jlq-3" value="POLICY_ITEM" style="whiteSpace=wrap;html=1;align=center;" vertex="1" parent="1">
          <mxGeometry x="540" y="140" width="150" height="60" as="geometry" />
        </mxCell>
        <mxCell id="Ezx-8jmVCmr3T-Vk9Jlq-4" value="" style="edgeStyle=entityRelationEdgeStyle;fontSize=12;html=1;endArrow=ERoneToMany;rounded=0;exitX=1;exitY=0.5;exitDx=0;exitDy=0;entryX=0;entryY=0.5;entryDx=0;entryDy=0;" edge="1" parent="1" source="Ezx-8jmVCmr3T-Vk9Jlq-1" target="Ezx-8jmVCmr3T-Vk9Jlq-2">
          <mxGeometry width="100" height="100" relative="1" as="geometry">
            <mxPoint x="270" y="130" as="sourcePoint" />
            <mxPoint x="370" y="30" as="targetPoint" />
          </mxGeometry>
        </mxCell>
        <mxCell id="Ezx-8jmVCmr3T-Vk9Jlq-5" value="" style="edgeStyle=entityRelationEdgeStyle;fontSize=12;html=1;endArrow=ERoneToMany;rounded=0;" edge="1" parent="1" target="Ezx-8jmVCmr3T-Vk9Jlq-3">
          <mxGeometry width="100" height="100" relative="1" as="geometry">
            <mxPoint x="450" y="170" as="sourcePoint" />
            <mxPoint x="308.6399999999999" y="180" as="targetPoint" />
          </mxGeometry>
        </mxCell>
      </root>
    </mxGraphModel>
  </diagram>
</mxfile>
